<svg id="e5dUqOjzYsf1" xmlns="http://www.w3.org/2000/svg" xmlns:xlink="http://www.w3.org/1999/xlink" viewBox="0 0 1920 1080" shape-rendering="geometricPrecision" text-rendering="geometricPrecision"><path d="" fill="none" stroke="#3f5787" stroke-width="3.84"/><path d="" fill="none" stroke="#3f5787" stroke-width="3.84"/><path d="M89.425787,807.177986h1752.678384" transform="translate(-5.764979 0)" fill="none" stroke="#fff" stroke-width="3.84"/><path d="M375.934673,807.177986v-212.461357h170.642757v212.461357" transform="translate(.000002 0)" fill="none" stroke="#fff" stroke-width="3.84"/><path d="" fill="none" stroke="#fff" stroke-width="3.84"/><path d="M375.934675,653.022315h-49.752025v124.091817h49.752023" transform="translate(.000003 0.000002)" fill="none" stroke="#fff" stroke-width="3.84"/><path d="M375.934675,664.932937h-60.411273v121.909576h60.411271" transform="translate(.000003 0)" fill="none" stroke="#fff" stroke-width="3.84"/><path d="M386.976507,807.177986v-229.163529h174.66207v229.163528" transform="translate(0 0.000001)" fill="none" stroke="#fff" stroke-width="3.84"/><path d="M108.790574,827.969197h1686.662601" transform="translate(7.878126-7.291048)" fill="none" stroke="#fff" stroke-width="3.84"/><path d="M742.781429,907.177986l30.630075-100v-316.7016h586.817281v316.7016l23.859175,100" transform="translate(-85.897695-100)" fill="none" stroke="#fff" stroke-width="3.84"/><path d="M581.184581,907.177986l34.8857-100v-332.408935h581.269158v332.408935l20.58647,100" transform="translate(60-100)" fill="none" stroke="#fff" stroke-width="3.84"/><path d="M649.008744,513.39229h526.730197v273.450223h-526.730198l.000001-273.450223Z" transform="translate(60.000002-99.999998)" fill="none" stroke="#fff" stroke-width="3.84"/><path d="" fill="none" stroke="#fff" stroke-width="3.84"/><path d="" fill="none" stroke="#fff" stroke-width="3.84"/><path d="M709.008746,707.177986h333.160462" fill="none" stroke="#fff" stroke-width="3.84"/><path d="M1084.476222,707.177986h151.262721" transform="translate(.000001 0)" fill="none" stroke="#fff" stroke-width="3.84"/><path d="M709.008746,730.576751h111.393796" fill="none" stroke="#fff" stroke-width="3.84"/><path d="" fill="none" stroke="#fff" stroke-width="3.84"/><path d="" fill="none" stroke="#fff" stroke-width="3.84"/><path d="M1424.931836,807.177986v-267.177986h207.890835v267.177986" transform="translate(-45.998006-.389802)" fill="none" stroke="#fff" stroke-width="3.84"/><path d="M1441.472839,807.177986v-283.710494h212.636044v283.710494" transform="translate(-45.998006-.389802)" fill="none" stroke="#fff" stroke-width="3.84"/><path d="" transform="translate(26 0)" fill="none" stroke="#fff" stroke-width="3.84"/><path d="M1459.826682,777.114134c0,0,156.261453,0,156.261453,0v-216.377522h-156.261455l.000002,216.377522Z" transform="translate(-45.998004-.389802)" fill="none" stroke="#fff" stroke-width="3.84"/><path d="" transform="translate(26 0)" fill="none" stroke="#fff" stroke-width="3.84"/><path d="M1547.790861,786.842513h-18.913608v11.830279h18.913608v-11.830279Z" transform="translate(-45.998006-.389801)" fill="none" stroke="#fff" stroke-width="3.84"/></svg>
